<svg xmlns="http://www.w3.org/2000/svg" width="24.506" height="19.06" viewBox="0 0 24.506 19.06">
  <path id="Icon_awesome-comments" data-name="Icon awesome-comments" d="M17.7,9.057C17.7,5.3,13.738,2.25,8.849,2.25S0,5.3,0,9.057a5.772,5.772,0,0,0,1.617,3.914A9.576,9.576,0,0,1,.094,15.29a.338.338,0,0,0-.064.37.333.333,0,0,0,.311.2A7.491,7.491,0,0,0,4.114,14.8a10.826,10.826,0,0,0,4.735,1.064C13.738,15.864,17.7,12.818,17.7,9.057Zm5.19,9.36A5.764,5.764,0,0,0,24.506,14.5c0-2.846-2.276-5.284-5.5-6.3a6.322,6.322,0,0,1,.055.855c0,4.506-4.582,8.169-10.211,8.169A12.755,12.755,0,0,1,7.5,17.145c1.34,2.446,4.489,4.165,8.156,4.165a10.766,10.766,0,0,0,4.735-1.064,7.491,7.491,0,0,0,3.774,1.064.335.335,0,0,0,.311-.2.341.341,0,0,0-.064-.37A9.474,9.474,0,0,1,22.889,18.417Z" transform="translate(0 -2.25)" fill="#400b36"/>
</svg>
