<svg height="19.06" viewBox="0 0 24.506 19.06" width="24.506" xmlns="http://www.w3.org/2000/svg"><path d="m17.7 9.057c0-3.757-3.962-6.807-8.851-6.807s-8.849 3.05-8.849 6.807a5.772 5.772 0 0 0 1.617 3.914 9.576 9.576 0 0 1 -1.523 2.319.338.338 0 0 0 -.064.37.333.333 0 0 0 .311.2 7.491 7.491 0 0 0 3.773-1.06 10.826 10.826 0 0 0 4.735 1.064c4.889 0 8.851-3.046 8.851-6.807zm5.19 9.36a5.764 5.764 0 0 0 1.616-3.917c0-2.846-2.276-5.284-5.5-6.3a6.322 6.322 0 0 1 .055.855c0 4.506-4.582 8.169-10.211 8.169a12.755 12.755 0 0 1 -1.35-.079c1.34 2.446 4.489 4.165 8.156 4.165a10.766 10.766 0 0 0 4.735-1.064 7.491 7.491 0 0 0 3.774 1.064.335.335 0 0 0 .311-.2.341.341 0 0 0 -.064-.37 9.474 9.474 0 0 1 -1.523-2.323z" fill="#6e6e6e" transform="translate(0 -2.25)"/></svg>