<svg xmlns="http://www.w3.org/2000/svg" width="85" height="25" viewBox="0 0 85 25"><defs><style>.a,.e,.f{fill:#fff;}.a,.b,.c,.d{stroke:#707070;}.a{stroke-width:0.25px;}.b,.g{fill:#6e6e6e;}.c,.d,.i{fill:none;}.c,.f,.g{stroke-width:2px;}.d{stroke-width:1.5px;}.f,.g{stroke:#6e6e6e;}.h{stroke:none;}</style></defs><g transform="translate(-520 -808)"><g transform="translate(575 807)"><g transform="translate(0 4)"><g class="a" transform="translate(0 0)"><rect class="h" width="30" height="20"/><rect class="i" x="0.125" y="0.125" width="29.75" height="19.75"/></g><g class="b" transform="translate(0 0)"><rect class="h" width="16" height="10"/><rect class="i" x="0.5" y="0.5" width="15" height="9"/></g><line class="c" x2="15.714" transform="translate(14 3.701)"/><line class="c" x2="15.714" transform="translate(14 8.701)"/><line class="c" x2="29.714" transform="translate(0 13.701)"/><line class="d" x2="29.714" transform="translate(0 18.844)"/><path class="e" d="M5.207,6.656l.872.526-.231-.992.769-.667L5.6,5.435l-.4-.935-.4.935L3.8,5.522l.769.667-.231.992Z" transform="translate(-1.656 -2.942)"/><path class="e" d="M5.207,6.656l.872.526-.231-.992.769-.667L5.6,5.435l-.4-.935-.4.935L3.8,5.522l.769.667-.231.992Z" transform="translate(2.629 -2.942)"/><path class="e" d="M5.207,6.656l.872.526-.231-.992.769-.667L5.6,5.435l-.4-.935-.4.935L3.8,5.522l.769.667-.231.992Z" transform="translate(6.915 -2.942)"/><path class="e" d="M5.207,6.656l.872.526-.231-.992.769-.667L5.6,5.435l-.4-.935-.4.935L3.8,5.522l.769.667-.231.992Z" transform="translate(1.201 1.344)"/><path class="e" d="M5.207,6.656l.872.526-.231-.992.769-.667L5.6,5.435l-.4-.935-.4.935L3.8,5.522l.769.667-.231.992Z" transform="translate(5.487 1.344)"/><path class="e" d="M5.207,6.656l.872.526-.231-.992.769-.667L5.6,5.435l-.4-.935-.4.935L3.8,5.522l.769.667-.231.992Z" transform="translate(-3.085 1.344)"/></g></g><g transform="translate(520 808)"><g class="f"><rect class="h" width="47" height="25" rx="12.5"/><rect class="i" x="1" y="1" width="45" height="23" rx="11.5"/></g><g class="g" transform="translate(23 3)"><rect class="h" width="20" height="19" rx="9.5"/><rect class="i" x="1" y="1" width="18" height="17" rx="8.5"/></g></g></g></svg>