<svg xmlns="http://www.w3.org/2000/svg" width="18.378" height="18.378" viewBox="0 0 18.378 18.378">
  <path id="Icon_awesome-phone" data-name="Icon awesome-phone" d="M17.709.883,13.977.021a.867.867,0,0,0-.987.5L11.267,4.54a.859.859,0,0,0,.248,1.005l2.175,1.78a13.3,13.3,0,0,1-6.36,6.36l-1.78-2.175a.861.861,0,0,0-1.005-.248L.524,12.986a.872.872,0,0,0-.5.991l.861,3.733a.861.861,0,0,0,.84.668A16.653,16.653,0,0,0,18.377,1.723.86.86,0,0,0,17.709.883Z" transform="translate(0.001 0.001)" fill="#6f5d6c"/>
</svg>
