<svg height="89.359" viewBox="0 0 54 89.359" width="54" xmlns="http://www.w3.org/2000/svg"><g fill="#6e6e6e"><path d="m20.3 24.75h-18.1a1.406 1.406 0 0 1 -.994-2.4l9.05-9.05a1.406 1.406 0 0 1 1.989 0l9.047 9.047a1.406 1.406 0 0 1 -.992 2.403z" transform="translate(15.206 -12.891)"/><path d="m20.3 12.891h-18.1a1.406 1.406 0 0 0 -.994 2.4l9.047 9.047a1.406 1.406 0 0 0 1.989 0l9.047-9.047a1.406 1.406 0 0 0 -.989-2.4z" transform="translate(15.206 64.609)"/><text font-family="HelveticaNeue-Light, Helvetica Neue" font-size="32" font-weight="300" transform="translate(6 47.5)"><tspan x="0" y="0">17</tspan></text><text font-family="HelveticaNeue-Medium, Helvetica Neue" font-size="11" font-weight="500" transform="translate(0 65.5)"><tspan x="0" y="0">total votes</tspan></text></g></svg>