<svg xmlns="http://www.w3.org/2000/svg" width="22.926" height="23.242" viewBox="0 0 22.926 23.242">
  <g id="Icon_zocial-www" data-name="Icon zocial-www" transform="translate(-139.409 379.575)">
    <path id="Path_57" data-name="Path 57" d="M79.4,111.689A11.918,11.918,0,0,0,68,119.86h1.688a9.736,9.736,0,0,1,.628-1.351h3.249a13.693,13.693,0,0,0-.355,1.351h1.646a12.7,12.7,0,0,1,.415-1.351h3.135v1.351H80v-1.351h3.387a11.854,11.854,0,0,1,.465,1.351H85.5a13.291,13.291,0,0,0-.4-1.351h3.373a9.732,9.732,0,0,1,.628,1.351h1.685A11.914,11.914,0,0,0,79.4,111.689Zm2.4,1.869a10.351,10.351,0,0,1,5.572,3.362H84.419A11.146,11.146,0,0,0,81.794,113.558Zm-5.26.117a10.551,10.551,0,0,0-2.341,3.245H71.427A10.338,10.338,0,0,1,76.535,113.675Zm3.465.511a9.158,9.158,0,0,1,2.564,2.735H80Zm-1.589.011v2.724H76.017A8.412,8.412,0,0,1,78.411,114.2Zm-9.931,7.2a.679.679,0,0,0-.4.11.326.326,0,0,0-.16.273,1.049,1.049,0,0,0,.074.333l.844,2.426c.026.073.055.154.089.241a.829.829,0,0,0,.135.231.554.554,0,0,0,.223.156.941.941,0,0,0,.355.057.811.811,0,0,0,.422-.1.579.579,0,0,0,.223-.209,3.808,3.808,0,0,0,.156-.358l.755-2.128.752,2.139c.063.158.112.275.153.351a.562.562,0,0,0,.22.209.834.834,0,0,0,.426.092.822.822,0,0,0,.436-.1.572.572,0,0,0,.216-.22,3.513,3.513,0,0,0,.145-.369l.844-2.426a1.166,1.166,0,0,0,.078-.333.324.324,0,0,0-.163-.273.683.683,0,0,0-.394-.11.625.625,0,0,0-.358.085.486.486,0,0,0-.17.188,1.983,1.983,0,0,0-.1.266l-.6,2.064-.667-1.933a3.617,3.617,0,0,0-.153-.355.609.609,0,0,0-.223-.216.849.849,0,0,0-.45-.1.894.894,0,0,0-.45.1.616.616,0,0,0-.238.223,2.572,2.572,0,0,0-.153.351L69.7,124l-.6-2.078a1.179,1.179,0,0,0-.181-.38.525.525,0,0,0-.436-.145Zm8.168,0a.679.679,0,0,0-.4.11.326.326,0,0,0-.16.273,1.075,1.075,0,0,0,.078.333l.844,2.426c.026.073.055.154.089.241a.821.821,0,0,0,.131.231.555.555,0,0,0,.223.156.941.941,0,0,0,.355.057.825.825,0,0,0,.426-.1.566.566,0,0,0,.22-.209,3.8,3.8,0,0,0,.156-.358l.755-2.128.752,2.139c.063.158.112.275.153.351a.562.562,0,0,0,.22.209.834.834,0,0,0,.426.092.822.822,0,0,0,.436-.1.572.572,0,0,0,.216-.22,3.511,3.511,0,0,0,.145-.369l.844-2.426a1.166,1.166,0,0,0,.078-.333.324.324,0,0,0-.163-.273.683.683,0,0,0-.394-.11.625.625,0,0,0-.358.085.486.486,0,0,0-.17.188,1.985,1.985,0,0,0-.1.266l-.6,2.064-.667-1.933a3.615,3.615,0,0,0-.153-.355.6.6,0,0,0-.22-.216.849.849,0,0,0-.45-.1.909.909,0,0,0-.454.1.616.616,0,0,0-.238.223,2.572,2.572,0,0,0-.153.351L77.865,124l-.6-2.078a1.179,1.179,0,0,0-.177-.38.533.533,0,0,0-.44-.145Zm8.168,0a.679.679,0,0,0-.4.11.326.326,0,0,0-.16.273,1.075,1.075,0,0,0,.078.333l.844,2.426c.026.073.055.154.089.241a.821.821,0,0,0,.131.231.555.555,0,0,0,.223.156.941.941,0,0,0,.355.057.825.825,0,0,0,.426-.1.566.566,0,0,0,.22-.209,3.634,3.634,0,0,0,.16-.358l.752-2.128.752,2.139c.063.158.112.275.153.351a.562.562,0,0,0,.22.209.834.834,0,0,0,.426.092.822.822,0,0,0,.436-.1.572.572,0,0,0,.216-.22,3.511,3.511,0,0,0,.145-.369l.844-2.426a1.166,1.166,0,0,0,.078-.333.32.32,0,0,0-.16-.273.7.7,0,0,0-.4-.11.625.625,0,0,0-.358.085.486.486,0,0,0-.17.188,1.983,1.983,0,0,0-.1.266L89.033,124l-.67-1.933a3.619,3.619,0,0,0-.153-.355.6.6,0,0,0-.22-.216.849.849,0,0,0-.45-.1.909.909,0,0,0-.454.1.616.616,0,0,0-.238.223,2.572,2.572,0,0,0-.153.351L86.033,124l-.6-2.078a1.179,1.179,0,0,0-.181-.38.533.533,0,0,0-.44-.145ZM67.944,126.55a12.015,12.015,0,0,0,22.905,0H89.172a9.787,9.787,0,0,1-.575,1.323h-3.4a13.518,13.518,0,0,0,.365-1.323H83.937a11.108,11.108,0,0,1-.415,1.323H80V126.55H78.411v1.323H75.194a13.444,13.444,0,0,1-.376-1.323H73.186c.091.448.2.89.33,1.323H70.2a9.805,9.805,0,0,1-.578-1.323H67.944Zm3.295,2.912h2.848a10.09,10.09,0,0,0,2.344,3.458A10.315,10.315,0,0,1,71.239,129.462Zm4.618,0h2.554v2.969A7.57,7.57,0,0,1,75.857,129.462Zm4.143,0h2.731A8.7,8.7,0,0,1,80,132.356Zm4.558,0h3a10.334,10.334,0,0,1-5.838,3.621,10.7,10.7,0,0,0,2.841-3.621Z" transform="translate(71.486 -491.263)" fill="#6f5d6c"/>
  </g>
</svg>
