<svg xmlns="http://www.w3.org/2000/svg" width="17.094" height="23.283" viewBox="0 0 17.094 23.283">
  <g id="Group_577" data-name="Group 577" transform="translate(-1612.814 -1604.717)">
    <path id="Icon_awesome-fax" data-name="Icon awesome-fax" d="M2.137,4.274H1.068A1.069,1.069,0,0,0,0,5.342V16.026a1.069,1.069,0,0,0,1.068,1.068H2.137a1.069,1.069,0,0,0,1.068-1.068V5.342A1.069,1.069,0,0,0,2.137,4.274ZM16.026,5.342V2.579a1.069,1.069,0,0,0-.313-.756L14.2.313A1.068,1.068,0,0,0,13.446,0h-8.1A1.069,1.069,0,0,0,4.274,1.068V16.026a1.069,1.069,0,0,0,1.068,1.068H16.026a1.069,1.069,0,0,0,1.068-1.068V6.41A1.069,1.069,0,0,0,16.026,5.342Zm-6.41,9.081a.534.534,0,0,1-.534.534H8.013a.534.534,0,0,1-.534-.534V13.355a.534.534,0,0,1,.534-.534H9.081a.534.534,0,0,1,.534.534Zm0-4.274a.534.534,0,0,1-.534.534H8.013a.534.534,0,0,1-.534-.534V9.081a.534.534,0,0,1,.534-.534H9.081a.534.534,0,0,1,.534.534Zm4.274,4.274a.534.534,0,0,1-.534.534H12.286a.534.534,0,0,1-.534-.534V13.355a.534.534,0,0,1,.534-.534h1.068a.534.534,0,0,1,.534.534Zm0-4.274a.534.534,0,0,1-.534.534H12.286a.534.534,0,0,1-.534-.534V9.081a.534.534,0,0,1,.534-.534h1.068a.534.534,0,0,1,.534.534Zm.534-3.739H5.876V1.6h6.945V2.671a.534.534,0,0,0,.534.534h1.068Z" transform="translate(1612.814 1604.717)" fill="#6f5d6c"/>
    <text id="Fax" transform="translate(1618 1627)" fill="#6f5d6c" font-size="6" font-family="HelveticaNeue-Medium, Helvetica Neue" font-weight="500"><tspan x="0" y="0">Fax</tspan></text>
  </g>
</svg>
