<svg xmlns="http://www.w3.org/2000/svg" width="85" height="25" viewBox="0 0 85 25">
  <g id="lang_toggle" data-name="lang toggle" transform="translate(-520 -808)">
    <g id="language_choice" data-name="language choice" transform="translate(575 807)">
      <g id="flag-en" transform="translate(0 4)">
        <g id="Rectangle_4" data-name="Rectangle 4" transform="translate(0 0)" fill="#fff" stroke="#707070" stroke-width="0.25">
          <rect width="30" height="20" stroke="none"/>
          <rect x="0.125" y="0.125" width="29.75" height="19.75" fill="none"/>
        </g>
        <g id="Group_228" data-name="Group 228">
          <line id="Line_1" data-name="Line 1" x2="15.714" transform="translate(14 3.701)" fill="none" stroke="#a31a1a" stroke-width="2"/>
          <line id="Line_2" data-name="Line 2" x2="15.714" transform="translate(14 8.701)" fill="none" stroke="#a31a1a" stroke-width="2"/>
          <line id="Line_3" data-name="Line 3" x2="29.714" transform="translate(0 13.701)" fill="none" stroke="#a31a1a" stroke-width="2"/>
          <line id="Line_4" data-name="Line 4" x2="29.714" transform="translate(0 18.844)" fill="none" stroke="#a31a1a" stroke-width="1.5"/>
        </g>
        <g id="Group_229" data-name="Group 229">
          <g id="Rectangle_5" data-name="Rectangle 5" transform="translate(0 0)" fill="#0f007e" stroke="#0f007e" stroke-width="1">
            <rect width="16" height="10" stroke="none"/>
            <rect x="0.5" y="0.5" width="15" height="9" fill="none"/>
          </g>
          <path id="Icon_ionic-md-star" data-name="Icon ionic-md-star" d="M5.207,6.656l.872.526-.231-.992.769-.667L5.6,5.435l-.4-.935-.4.935L3.8,5.522l.769.667-.231.992Z" transform="translate(-1.656 -2.942)" fill="#fff"/>
          <path id="Icon_ionic-md-star-2" data-name="Icon ionic-md-star" d="M5.207,6.656l.872.526-.231-.992.769-.667L5.6,5.435l-.4-.935-.4.935L3.8,5.522l.769.667-.231.992Z" transform="translate(2.629 -2.942)" fill="#fff"/>
          <path id="Icon_ionic-md-star-3" data-name="Icon ionic-md-star" d="M5.207,6.656l.872.526-.231-.992.769-.667L5.6,5.435l-.4-.935-.4.935L3.8,5.522l.769.667-.231.992Z" transform="translate(6.915 -2.942)" fill="#fff"/>
          <path id="Icon_ionic-md-star-4" data-name="Icon ionic-md-star" d="M5.207,6.656l.872.526-.231-.992.769-.667L5.6,5.435l-.4-.935-.4.935L3.8,5.522l.769.667-.231.992Z" transform="translate(1.201 1.344)" fill="#fff"/>
          <path id="Icon_ionic-md-star-5" data-name="Icon ionic-md-star" d="M5.207,6.656l.872.526-.231-.992.769-.667L5.6,5.435l-.4-.935-.4.935L3.8,5.522l.769.667-.231.992Z" transform="translate(5.487 1.344)" fill="#fff"/>
          <path id="Icon_ionic-md-star-6" data-name="Icon ionic-md-star" d="M5.207,6.656l.872.526-.231-.992.769-.667L5.6,5.435l-.4-.935-.4.935L3.8,5.522l.769.667-.231.992Z" transform="translate(-3.085 1.344)" fill="#fff"/>
        </g>
      </g>
    </g>
    <g id="Toggle" transform="translate(520 808)">
      <g id="Base_" data-name="Base " fill="none" stroke="#400b36" stroke-width="2">
        <rect width="47" height="25" rx="12.5" stroke="none"/>
        <rect x="1" y="1" width="45" height="23" rx="11.5" fill="none"/>
      </g>
      <g id="Handle_" data-name="Handle " transform="translate(23 3)" fill="#400b36" stroke="#400b36" stroke-width="2">
        <rect width="20" height="19" rx="9.5" stroke="none"/>
        <rect x="1" y="1" width="18" height="17" rx="8.5" fill="none"/>
      </g>
    </g>
  </g>
</svg>
